# xmcd CD database file
#
# Track frame offsets:
#	200
#	17495
#	31722
#	48832
#	61960
#	79217
#
# Disc length: 1290 seconds
#
# Revision: 0
# Processed by: cddbd v1.4PL0 Copyright (c) Steve Scherf et al.
# Submitted via: CDex 1.50beta10
#
DISCID=3a050806
DTITLE=Maissa - Not what I had Planned
DYEAR=1995
DGENRE=Country
TTITLE0=I'm living
TTITLE1=Double personality
TTITLE2=lifetime of goodbyes
TTITLE3=covers blown
TTITLE4=dyed ourselves green
TTITLE5=Ain't gonna bleed
EXTD=YEAR: 1995
EXTT0=
EXTT1=
EXTT2=
EXTT3=
EXTT4=
EXTT5=
PLAYORDER=
